<svg fill="#54ADDE" xmlns="http://www.w3.org/2000/svg" xmlns:xlink="http://www.w3.org/1999/xlink" version="1.1" x="0px" y="0px" viewBox="0 0 100 100" enable-background="new 0 0 100 100" xml:space="preserve"><g><g><g><path d="M91.362,20.517v38.377c0,6.059-4.903,10.96-10.967,10.96H20.084c-6.061,0-10.972-4.901-10.972-10.96V20.517     c0-6.06,4.911-10.967,10.972-10.967h60.312C86.459,9.549,91.362,14.457,91.362,20.517z M85.879,58.894V20.517     c0-3.022-2.457-5.484-5.483-5.484H20.084c-3.022,0-5.483,2.461-5.483,5.484v38.377c0,3.027,2.461,5.483,5.483,5.483h60.312     C83.422,64.377,85.879,61.921,85.879,58.894z"></path><path d="M83.136,75.35c4.541,0,8.227,3.685,8.227,8.219c0,4.546-3.686,8.231-8.227,8.231H17.342c-4.54,0-8.229-3.685-8.229-8.231     c0-4.535,3.689-8.219,8.229-8.219H83.136z M85.879,83.569c0-1.514-1.226-2.737-2.743-2.737H17.342     c-1.515,0-2.741,1.223-2.741,2.737s1.227,2.747,2.741,2.747h65.794C84.653,86.316,85.879,85.083,85.879,83.569z"></path><path d="M80.396,25.994v27.417c0,3.027-2.458,5.483-5.479,5.483H25.568c-3.022,0-5.484-2.457-5.484-5.483V25.994     c0-3.016,2.462-5.477,5.484-5.477h49.348C77.938,20.517,80.396,22.978,80.396,25.994z"></path></g></g></g></svg>