<svg fill="#54ADDE" xmlns="http://www.w3.org/2000/svg" xmlns:xlink="http://www.w3.org/1999/xlink" version="1.1" x="0px" y="0px" viewBox="0 0 52 52" style="enable-background:new 0 0 52 52;" xml:space="preserve"><style type="text/css">
	.st0{fill:none;stroke:#54ADDE;stroke-width:2;stroke-miterlimit:15;}
	.st1{fill:none;stroke:#54ADDE;stroke-width:2;stroke-miterlimit:10;}
	.st2{fill:none;}
</style><g><g><g><path d="M50,22H32V8h18V22z M34,20h14V10H34V20z"></path></g><g><rect x="37.3369141" y="24" width="7.3261719" height="2"></rect></g><g><rect x="40" y="21" width="2" height="4"></rect></g></g><g><g><path d="M50,46H32V32h18V46z M34,44h14V34H34V44z"></path></g><g><rect x="37.3369141" y="48" width="7.3261719" height="2"></rect></g><g><rect x="40" y="45" width="2" height="4"></rect></g></g><g><polygon points="30.4931641,40 27,40 27,13 31,13 31,15 29,15 29,38 30.4931641,38   "></polygon></g><g><rect x="22" y="33" width="6" height="2"></rect></g><g><path d="M13,24C6.9345703,24,2,19.0654297,2,13S6.9345703,2,13,2s11,4.9345703,11,11S19.0654297,24,13,24z M13,4    c-4.9628906,0-9,4.0371094-9,9s4.0371094,9,9,9s9-4.0371094,9-9S17.9628906,4,13,4z"></path></g><g><path d="M13,24c-3.2480469,0-5-5.6669922-5-11S9.7519531,2,13,2s5,5.6669922,5,11S16.2480469,24,13,24z M13,4    c-1.2236328,0-3,3.5058594-3,9s1.7763672,9,3,9s3-3.5058594,3-9S14.2236328,4,13,4z"></path></g><g><rect x="4.3427734" y="7" width="17.3154297" height="2"></rect></g><g><rect x="4.3427734" y="17" width="17.3154297" height="2"></rect></g><g><rect x="3.0009766" y="12.0009766" width="19.9990234" height="2"></rect></g><g><polygon points="29,14 27,14 27,13 25,13 25,11 29,11   "></polygon></g><g><g><path d="M20,40H2V26h18V40z M4,38h14V28H4V38z"></path></g><g><rect x="7.3369141" y="42" width="7.3261719" height="2"></rect></g><g><rect x="10" y="39" width="2" height="4"></rect></g></g></g></svg>