<svg fill="#54ADDE" xmlns="http://www.w3.org/2000/svg" data-name="Layer 1" viewBox="0 0 100 100" x="0px" y="0px"><title>104all</title><path d="M87.21,2.4H36a2.5,2.5,0,0,0-2.5,2.5V10H12.79a2.5,2.5,0,0,0-2.5,2.5v44.7a2.5,2.5,0,0,0,4.5,1.5L25.2,44.74H63.09a2.5,2.5,0,0,0,2.5-2.5V39.07H74.8L85.21,53a2.5,2.5,0,0,0,4.5-1.5V4.9A2.5,2.5,0,0,0,87.21,2.4ZM60.59,39.74H24a2.5,2.5,0,0,0-2,1l-6.66,8.9V15h45.3ZM84.71,44l-6.66-8.9a2.5,2.5,0,0,0-2-1H65.59V12.46a2.5,2.5,0,0,0-2.5-2.5H38.47V7.4H84.71Z"></path><path d="M56.54,92.49v2.6A2.5,2.5,0,0,0,59,97.6h27.9a2.5,2.5,0,0,0,2.5-2.5v-2.6a16.51,16.51,0,0,0-12-15.85,11.22,11.22,0,1,0-8.83,0A16.51,16.51,0,0,0,56.54,92.49ZM73,60.12a6.22,6.22,0,1,1-6.22,6.22A6.22,6.22,0,0,1,73,60.12ZM61.54,92.49A11.45,11.45,0,0,1,72.73,81h.52A11.44,11.44,0,0,1,84.43,92.49v.1H61.54Z"></path><path d="M10.57,92.49v2.6a2.5,2.5,0,0,0,2.5,2.5H41a2.5,2.5,0,0,0,2.5-2.5v-2.6a16.51,16.51,0,0,0-12-15.85,11.22,11.22,0,1,0-8.83,0A16.51,16.51,0,0,0,10.57,92.49ZM27,60.12a6.22,6.22,0,1,1-6.22,6.22A6.23,6.23,0,0,1,27,60.12ZM15.57,92.49A11.45,11.45,0,0,1,26.76,81h.52A11.44,11.44,0,0,1,38.46,92.49v.1H15.57Z"></path><path d="M22.79,25.78H35a2.5,2.5,0,0,0,0-5H22.79a2.5,2.5,0,1,0,0,5Z"></path><path d="M22.79,34.23h31a2.5,2.5,0,0,0,0-5h-31a2.5,2.5,0,0,0,0,5Z"></path></svg>