<svg version="1.1" width="547" height="94" viewBox="0 0 547 94" xmlns="http://www.w3.org/2000/svg" xmlns:xlink="http://www.w3.org/1999/xlink"><defs xmlns="http://www.w3.org/2000/svg"><style xmlns="http://www.w3.org/1999/xhtml" type="text/css">@import url(https://fonts.googleapis.com/css?family=Roboto:regular,100,300,500,700,900,italic,100italic,300italic,500italic,700italic,900italic);</style></defs><g xmlns="http://www.w3.org/2000/svg" id="obj_1"><g id="obj_3" transform="matrix(1,0,0,1,100.252,72.861)" opacity="1" display="inline"><path d="M 11.592 10.264 C 11.481 11.794 10.916 12.998 9.897 13.877 C 8.878 14.756 7.536 15.195 5.869 15.195 C 4.046 15.195 2.612 14.582 1.567 13.354 C 0.522 12.127 0 10.443 0 8.301 L 0 7.432 C 0 6.064 0.241 4.86 0.723 3.818 C 1.204 2.777 1.893 1.978 2.788 1.421 C 3.683 0.864 4.723 0.586 5.908 0.586 C 7.549 0.586 8.87 1.025 9.873 1.904 C 10.875 2.783 11.455 4.017 11.611 5.605 L 8.681 5.605 C 8.61 4.687 8.354 4.022 7.915 3.608 C 7.475 3.195 6.806 2.988 5.908 2.988 C 4.931 2.988 4.201 3.338 3.716 4.038 C 3.231 4.738 2.982 5.824 2.969 7.295 L 2.969 8.369 C 2.969 9.906 3.201 11.029 3.667 11.738 C 4.132 12.448 4.866 12.803 5.869 12.803 C 6.774 12.803 7.449 12.596 7.895 12.183 C 8.341 11.769 8.597 11.13 8.662 10.264 L 11.592 10.264 Z M 14.89 9.619 C 14.89 8.571 15.092 7.637 15.496 6.816 C 15.9 5.996 16.481 5.361 17.239 4.912 C 17.998 4.463 18.878 4.238 19.881 4.238 C 21.306 4.238 22.47 4.674 23.372 5.547 C 24.274 6.419 24.777 7.604 24.881 9.102 L 24.9 9.824 C 24.9 11.445 24.448 12.746 23.543 13.726 C 22.638 14.705 21.424 15.195 19.9 15.195 C 18.377 15.195 17.161 14.707 16.253 13.73 C 15.345 12.754 14.89 11.426 14.89 9.746 L 14.89 9.619 M 17.713 9.824 C 17.713 10.827 17.902 11.593 18.279 12.124 C 18.657 12.655 19.197 12.92 19.9 12.92 C 20.584 12.92 21.118 12.658 21.502 12.134 C 21.886 11.61 22.078 10.771 22.078 9.619 C 22.078 8.636 21.886 7.874 21.502 7.334 C 21.118 6.794 20.577 6.523 19.881 6.523 C 19.191 6.523 18.657 6.792 18.279 7.329 C 17.902 7.866 17.713 8.698 17.713 9.824 Z M 31.285 4.434 L 31.373 5.615 C 32.122 4.697 33.134 4.238 34.41 4.238 C 35.771 4.238 36.705 4.775 37.213 5.85 C 37.955 4.775 39.013 4.238 40.387 4.238 C 41.532 4.238 42.385 4.572 42.945 5.239 C 43.505 5.907 43.785 6.911 43.785 8.252 L 43.785 15 L 40.953 15 L 40.953 8.262 C 40.953 7.663 40.836 7.225 40.601 6.948 C 40.367 6.672 39.954 6.533 39.361 6.533 C 38.515 6.533 37.929 6.937 37.603 7.744 L 37.613 15 L 34.791 15 L 34.791 8.271 C 34.791 7.66 34.67 7.217 34.43 6.943 C 34.189 6.67 33.778 6.533 33.199 6.533 C 32.398 6.533 31.819 6.865 31.461 7.529 L 31.461 15 L 28.639 15 L 28.639 4.434 L 31.285 4.434 Z M 57.465 9.814 C 57.465 11.442 57.095 12.746 56.356 13.726 C 55.617 14.705 54.62 15.195 53.363 15.195 C 52.295 15.195 51.433 14.824 50.775 14.082 L 50.775 19.063 L 47.953 19.063 L 47.953 4.434 L 50.57 4.434 L 50.668 5.469 C 51.351 4.648 52.243 4.238 53.344 4.238 C 54.646 4.238 55.658 4.72 56.381 5.684 C 57.103 6.647 57.465 7.975 57.465 9.668 L 57.465 9.814 M 54.642 9.609 C 54.642 8.626 54.468 7.868 54.12 7.334 C 53.772 6.8 53.265 6.533 52.601 6.533 C 51.716 6.533 51.107 6.872 50.775 7.549 L 50.775 11.875 C 51.12 12.572 51.736 12.92 52.621 12.92 C 53.969 12.92 54.642 11.816 54.642 9.609 Z M 67.541 13.926 C 66.844 14.772 65.881 15.195 64.65 15.195 C 63.517 15.195 62.653 14.87 62.057 14.219 C 61.462 13.568 61.157 12.614 61.144 11.357 L 61.144 4.434 L 63.967 4.434 L 63.967 11.26 C 63.967 12.36 64.468 12.91 65.471 12.91 C 66.428 12.91 67.085 12.578 67.443 11.914 L 67.443 4.434 L 70.275 4.434 L 70.275 15 L 67.619 15 L 67.541 13.926 Z M 77.783 1.836 L 77.783 4.434 L 79.59 4.434 L 79.59 6.504 L 77.783 6.504 L 77.783 11.777 C 77.783 12.168 77.858 12.448 78.008 12.617 C 78.157 12.786 78.444 12.871 78.867 12.871 C 79.18 12.871 79.456 12.848 79.697 12.803 L 79.697 14.941 C 79.144 15.111 78.574 15.195 77.988 15.195 C 76.009 15.195 75 14.196 74.961 12.197 L 74.961 6.504 L 73.418 6.504 L 73.418 4.434 L 74.961 4.434 L 74.961 1.836 L 77.783 1.836 Z M 88.025 15.195 C 86.476 15.195 85.214 14.72 84.241 13.77 C 83.268 12.819 82.781 11.553 82.781 9.971 L 82.781 9.697 C 82.781 8.636 82.986 7.687 83.396 6.851 C 83.806 6.014 84.388 5.369 85.139 4.917 C 85.891 4.465 86.749 4.238 87.713 4.238 C 89.158 4.238 90.296 4.694 91.126 5.605 C 91.956 6.517 92.371 7.809 92.371 9.482 L 92.371 10.635 L 85.642 10.635 C 85.734 11.325 86.009 11.878 86.468 12.295 C 86.927 12.712 87.508 12.92 88.211 12.92 C 89.298 12.92 90.148 12.526 90.76 11.738 L 92.146 13.291 C 91.723 13.89 91.15 14.357 90.428 14.692 C 89.705 15.028 88.904 15.195 88.025 15.195 M 87.703 6.523 C 87.143 6.523 86.689 6.712 86.341 7.09 C 85.992 7.467 85.769 8.008 85.672 8.711 L 89.598 8.711 L 89.598 8.486 C 89.584 7.861 89.415 7.378 89.09 7.036 C 88.764 6.694 88.302 6.523 87.703 6.523 Z M 101.91 7.08 C 101.526 7.028 101.187 7.002 100.894 7.002 C 99.827 7.002 99.127 7.363 98.795 8.086 L 98.795 15 L 95.973 15 L 95.973 4.434 L 98.639 4.434 L 98.717 5.693 C 99.283 4.723 100.068 4.238 101.07 4.238 C 101.383 4.238 101.676 4.281 101.949 4.365 L 101.91 7.08 Z M 119.806 11.27 C 119.806 10.716 119.611 10.291 119.221 9.995 C 118.83 9.699 118.127 9.386 117.111 9.058 C 116.096 8.729 115.292 8.405 114.699 8.086 C 113.084 7.214 112.277 6.038 112.277 4.561 C 112.277 3.792 112.494 3.107 112.927 2.505 C 113.36 1.903 113.981 1.432 114.792 1.094 C 115.602 0.755 116.512 0.586 117.521 0.586 C 118.537 0.586 119.442 0.77 120.236 1.138 C 121.03 1.506 121.647 2.025 122.087 2.695 C 122.526 3.366 122.746 4.128 122.746 4.98 L 119.816 4.98 C 119.816 4.329 119.611 3.823 119.201 3.462 C 118.791 3.101 118.215 2.92 117.473 2.92 C 116.756 2.92 116.2 3.071 115.803 3.374 C 115.405 3.677 115.207 4.076 115.207 4.57 C 115.207 5.033 115.44 5.42 115.905 5.732 C 116.371 6.045 117.056 6.338 117.961 6.611 C 119.627 7.113 120.842 7.734 121.603 8.477 C 122.365 9.219 122.746 10.143 122.746 11.25 C 122.746 12.48 122.28 13.446 121.349 14.146 C 120.418 14.845 119.165 15.195 117.59 15.195 C 116.496 15.195 115.5 14.995 114.601 14.595 C 113.703 14.194 113.018 13.646 112.546 12.949 C 112.074 12.253 111.838 11.445 111.838 10.527 L 114.777 10.527 C 114.777 12.096 115.715 12.881 117.59 12.881 C 118.286 12.881 118.83 12.739 119.221 12.456 C 119.611 12.173 119.806 11.777 119.806 11.27 Z M 130.937 12.92 C 131.458 12.92 131.881 12.777 132.207 12.49 C 132.532 12.204 132.702 11.823 132.715 11.348 L 135.361 11.348 C 135.355 12.064 135.159 12.72 134.775 13.315 C 134.391 13.911 133.865 14.373 133.198 14.702 C 132.531 15.031 131.793 15.195 130.986 15.195 C 129.476 15.195 128.284 14.715 127.412 13.755 C 126.54 12.795 126.103 11.468 126.103 9.775 L 126.103 9.59 C 126.103 7.962 126.536 6.663 127.402 5.693 C 128.268 4.723 129.456 4.238 130.967 4.238 C 132.288 4.238 133.348 4.614 134.145 5.366 C 134.943 6.118 135.348 7.119 135.361 8.369 L 132.715 8.369 C 132.702 7.822 132.532 7.378 132.207 7.036 C 131.881 6.694 131.452 6.523 130.918 6.523 C 130.26 6.523 129.764 6.763 129.429 7.241 C 129.093 7.72 128.926 8.496 128.926 9.57 L 128.926 9.863 C 128.926 10.951 129.092 11.732 129.424 12.207 C 129.756 12.682 130.26 12.92 130.937 12.92 Z M 141.951 15 L 139.119 15 L 139.119 4.434 L 141.951 4.434 L 141.951 15 M 138.953 1.699 C 138.953 1.276 139.095 0.928 139.378 0.654 C 139.661 0.381 140.047 0.244 140.535 0.244 C 141.017 0.244 141.401 0.381 141.687 0.654 C 141.974 0.928 142.117 1.276 142.117 1.699 C 142.117 2.129 141.972 2.48 141.682 2.754 C 141.393 3.027 141.01 3.164 140.535 3.164 C 140.06 3.164 139.677 3.027 139.388 2.754 C 139.098 2.48 138.953 2.129 138.953 1.699 Z M 151.139 15.195 C 149.589 15.195 148.328 14.72 147.354 13.77 C 146.381 12.819 145.894 11.553 145.894 9.971 L 145.894 9.697 C 145.894 8.636 146.099 7.687 146.51 6.851 C 146.92 6.014 147.501 5.369 148.253 4.917 C 149.005 4.465 149.862 4.238 150.826 4.238 C 152.271 4.238 153.409 4.694 154.239 5.605 C 155.069 6.517 155.484 7.809 155.484 9.482 L 155.484 10.635 L 148.756 10.635 C 148.847 11.325 149.122 11.878 149.581 12.295 C 150.04 12.712 150.621 12.92 151.324 12.92 C 152.411 12.92 153.261 12.526 153.873 11.738 L 155.26 13.291 C 154.836 13.89 154.264 14.357 153.541 14.692 C 152.818 15.028 152.017 15.195 151.139 15.195 M 150.816 6.523 C 150.256 6.523 149.802 6.712 149.454 7.09 C 149.106 7.467 148.883 8.008 148.785 8.711 L 152.711 8.711 L 152.711 8.486 C 152.698 7.861 152.528 7.378 152.203 7.036 C 151.877 6.694 151.415 6.523 150.816 6.523 Z M 161.683 4.434 L 161.771 5.654 C 162.527 4.71 163.539 4.238 164.808 4.238 C 165.928 4.238 166.762 4.567 167.308 5.225 C 167.855 5.882 168.135 6.865 168.148 8.174 L 168.148 15 L 165.326 15 L 165.326 8.242 C 165.326 7.643 165.196 7.209 164.935 6.938 C 164.675 6.668 164.242 6.533 163.637 6.533 C 162.842 6.533 162.247 6.872 161.849 7.549 L 161.849 15 L 159.027 15 L 159.027 4.434 L 161.683 4.434 Z M 176.681 12.92 C 177.202 12.92 177.625 12.777 177.951 12.49 C 178.277 12.204 178.446 11.823 178.459 11.348 L 181.105 11.348 C 181.099 12.064 180.903 12.72 180.519 13.315 C 180.135 13.911 179.61 14.373 178.942 14.702 C 178.275 15.031 177.538 15.195 176.73 15.195 C 175.22 15.195 174.028 14.715 173.156 13.755 C 172.284 12.795 171.848 11.468 171.848 9.775 L 171.848 9.59 C 171.848 7.962 172.28 6.663 173.146 5.693 C 174.012 4.723 175.2 4.238 176.711 4.238 C 178.032 4.238 179.092 4.614 179.889 5.366 C 180.687 6.118 181.092 7.119 181.105 8.369 L 178.459 8.369 C 178.446 7.822 178.277 7.378 177.951 7.036 C 177.625 6.694 177.196 6.523 176.662 6.523 C 176.004 6.523 175.508 6.763 175.173 7.241 C 174.837 7.72 174.67 8.496 174.67 9.57 L 174.67 9.863 C 174.67 10.951 174.836 11.732 175.168 12.207 C 175.5 12.682 176.004 12.92 176.681 12.92 Z M 189.58 15.195 C 188.03 15.195 186.769 14.72 185.796 13.77 C 184.822 12.819 184.336 11.553 184.336 9.971 L 184.336 9.697 C 184.336 8.636 184.541 7.687 184.951 6.851 C 185.361 6.014 185.942 5.369 186.694 4.917 C 187.446 4.465 188.304 4.238 189.267 4.238 C 190.713 4.238 191.85 4.694 192.681 5.605 C 193.511 6.517 193.926 7.809 193.926 9.482 L 193.926 10.635 L 187.197 10.635 C 187.288 11.325 187.563 11.878 188.022 12.295 C 188.481 12.712 189.062 12.92 189.765 12.92 C 190.853 12.92 191.702 12.526 192.314 11.738 L 193.701 13.291 C 193.278 13.89 192.705 14.357 191.982 14.692 C 191.26 15.028 190.459 15.195 189.58 15.195 M 189.258 6.523 C 188.698 6.523 188.244 6.712 187.895 7.09 C 187.547 7.467 187.324 8.008 187.226 8.711 L 191.152 8.711 L 191.152 8.486 C 191.139 7.861 190.97 7.378 190.644 7.036 C 190.319 6.694 189.857 6.523 189.258 6.523 Z M 213.248 8.838 L 207.623 8.838 L 207.623 12.646 L 214.224 12.646 L 214.224 15 L 204.693 15 L 204.693 0.781 L 214.205 0.781 L 214.205 3.154 L 207.623 3.154 L 207.623 6.543 L 213.248 6.543 L 213.248 8.838 Z M 217.318 9.639 C 217.318 7.992 217.688 6.68 218.427 5.703 C 219.166 4.727 220.176 4.238 221.459 4.238 C 222.487 4.238 223.337 4.622 224.008 5.391 L 224.008 0 L 226.84 0 L 226.84 15 L 224.291 15 L 224.154 13.877 C 223.451 14.756 222.546 15.195 221.439 15.195 C 220.196 15.195 219.198 14.705 218.446 13.726 C 217.694 12.746 217.318 11.383 217.318 9.639 M 220.14 9.844 C 220.14 10.833 220.313 11.592 220.658 12.119 C 221.003 12.646 221.504 12.91 222.162 12.91 C 223.034 12.91 223.65 12.542 224.008 11.807 L 224.008 7.637 C 223.656 6.901 223.047 6.533 222.181 6.533 C 220.821 6.533 220.14 7.637 220.14 9.844 Z M 237.355 13.926 C 236.659 14.772 235.695 15.195 234.465 15.195 C 233.332 15.195 232.468 14.87 231.872 14.219 C 231.276 13.568 230.972 12.614 230.959 11.357 L 230.959 4.434 L 233.781 4.434 L 233.781 11.26 C 233.781 12.36 234.282 12.91 235.285 12.91 C 236.242 12.91 236.9 12.578 237.258 11.914 L 237.258 4.434 L 240.09 4.434 L 240.09 15 L 237.433 15 L 237.355 13.926 Z M 248.613 12.92 C 249.134 12.92 249.557 12.777 249.883 12.49 C 250.208 12.204 250.377 11.823 250.39 11.348 L 253.037 11.348 C 253.03 12.064 252.835 12.72 252.451 13.315 C 252.067 13.911 251.541 14.373 250.874 14.702 C 250.207 15.031 249.469 15.195 248.662 15.195 C 247.152 15.195 245.96 14.715 245.088 13.755 C 244.215 12.795 243.779 11.468 243.779 9.775 L 243.779 9.59 C 243.779 7.962 244.212 6.663 245.078 5.693 C 245.944 4.723 247.132 4.238 248.642 4.238 C 249.964 4.238 251.024 4.614 251.821 5.366 C 252.619 6.118 253.024 7.119 253.037 8.369 L 250.39 8.369 C 250.377 7.822 250.208 7.378 249.883 7.036 C 249.557 6.694 249.127 6.523 248.594 6.523 C 247.936 6.523 247.44 6.763 247.104 7.241 C 246.769 7.72 246.601 8.496 246.601 9.57 L 246.601 9.863 C 246.601 10.951 246.767 11.732 247.099 12.207 C 247.431 12.682 247.936 12.92 248.613 12.92 Z M 262.771 15 C 262.641 14.746 262.547 14.43 262.488 14.053 C 261.805 14.814 260.916 15.195 259.822 15.195 C 258.787 15.195 257.929 14.896 257.249 14.297 C 256.569 13.698 256.228 12.943 256.228 12.031 C 256.228 10.911 256.643 10.052 257.473 9.453 C 258.304 8.854 259.503 8.551 261.072 8.545 L 262.371 8.545 L 262.371 7.939 C 262.371 7.451 262.246 7.061 261.995 6.768 C 261.744 6.475 261.349 6.328 260.808 6.328 C 260.333 6.328 259.96 6.442 259.69 6.67 C 259.42 6.898 259.285 7.21 259.285 7.607 L 256.463 7.607 C 256.463 6.995 256.652 6.429 257.029 5.908 C 257.407 5.387 257.941 4.979 258.631 4.683 C 259.321 4.386 260.096 4.238 260.955 4.238 C 262.257 4.238 263.291 4.565 264.056 5.22 C 264.82 5.874 265.203 6.794 265.203 7.979 L 265.203 12.559 C 265.209 13.561 265.349 14.32 265.623 14.834 L 265.623 15 L 262.771 15 M 260.437 13.037 C 260.854 13.037 261.238 12.944 261.59 12.759 C 261.941 12.573 262.202 12.324 262.371 12.012 L 262.371 10.195 L 261.316 10.195 C 259.903 10.195 259.152 10.684 259.06 11.66 L 259.051 11.826 C 259.051 12.178 259.174 12.467 259.422 12.695 C 259.669 12.923 260.008 13.037 260.437 13.037 Z M 272.75 1.836 L 272.75 4.434 L 274.556 4.434 L 274.556 6.504 L 272.75 6.504 L 272.75 11.777 C 272.75 12.168 272.825 12.448 272.974 12.617 C 273.124 12.786 273.411 12.871 273.834 12.871 C 274.146 12.871 274.423 12.848 274.664 12.803 L 274.664 14.941 C 274.111 15.111 273.541 15.195 272.955 15.195 C 270.976 15.195 269.967 14.196 269.928 12.197 L 269.928 6.504 L 268.385 6.504 L 268.385 4.434 L 269.928 4.434 L 269.928 1.836 L 272.75 1.836 Z M 281.107 15 L 278.275 15 L 278.275 4.434 L 281.107 4.434 L 281.107 15 M 278.109 1.699 C 278.109 1.276 278.251 0.928 278.534 0.654 C 278.817 0.381 279.203 0.244 279.691 0.244 C 280.173 0.244 280.557 0.381 280.844 0.654 C 281.13 0.928 281.273 1.276 281.273 1.699 C 281.273 2.129 281.128 2.48 280.839 2.754 C 280.549 3.027 280.167 3.164 279.691 3.164 C 279.216 3.164 278.834 3.027 278.544 2.754 C 278.254 2.48 278.109 2.129 278.109 1.699 Z M 284.992 9.619 C 284.992 8.571 285.194 7.637 285.598 6.816 C 286.001 5.996 286.582 5.361 287.341 4.912 C 288.099 4.463 288.98 4.238 289.982 4.238 C 291.408 4.238 292.572 4.674 293.473 5.547 C 294.375 6.419 294.878 7.604 294.982 9.102 L 295.002 9.824 C 295.002 11.445 294.549 12.746 293.644 13.726 C 292.739 14.705 291.525 15.195 290.002 15.195 C 288.478 15.195 287.263 14.707 286.354 13.73 C 285.446 12.754 284.992 11.426 284.992 9.746 L 284.992 9.619 M 287.814 9.824 C 287.814 10.827 288.003 11.593 288.381 12.124 C 288.758 12.655 289.299 12.92 290.002 12.92 C 290.685 12.92 291.219 12.658 291.603 12.134 C 291.987 11.61 292.18 10.771 292.18 9.619 C 292.18 8.636 291.987 7.874 291.603 7.334 C 291.219 6.794 290.679 6.523 289.982 6.523 C 289.292 6.523 288.758 6.792 288.381 7.329 C 288.003 7.866 287.814 8.698 287.814 9.824 Z M 301.338 4.434 L 301.426 5.654 C 302.181 4.71 303.193 4.238 304.463 4.238 C 305.583 4.238 306.416 4.567 306.963 5.225 C 307.51 5.882 307.79 6.865 307.803 8.174 L 307.803 15 L 304.98 15 L 304.98 8.242 C 304.98 7.643 304.85 7.209 304.59 6.938 C 304.329 6.668 303.896 6.533 303.291 6.533 C 302.497 6.533 301.901 6.872 301.504 7.549 L 301.504 15 L 298.681 15 L 298.681 4.434 L 301.338 4.434 Z M 330.269 10.264 C 330.159 11.794 329.594 12.998 328.575 13.877 C 327.556 14.756 326.213 15.195 324.547 15.195 C 322.724 15.195 321.29 14.582 320.245 13.354 C 319.2 12.127 318.678 10.443 318.678 8.301 L 318.678 7.432 C 318.678 6.064 318.918 4.86 319.4 3.818 C 319.882 2.777 320.57 1.978 321.466 1.421 C 322.361 0.864 323.401 0.586 324.586 0.586 C 326.226 0.586 327.548 1.025 328.551 1.904 C 329.553 2.783 330.133 4.017 330.289 5.605 L 327.359 5.605 C 327.288 4.687 327.032 4.022 326.593 3.608 C 326.153 3.195 325.484 2.988 324.586 2.988 C 323.609 2.988 322.878 3.338 322.393 4.038 C 321.908 4.738 321.659 5.824 321.646 7.295 L 321.646 8.369 C 321.646 9.906 321.879 11.029 322.345 11.738 C 322.81 12.448 323.544 12.803 324.547 12.803 C 325.452 12.803 326.127 12.596 326.573 12.183 C 327.019 11.769 327.275 11.13 327.34 10.264 L 330.269 10.264 Z M 333.568 9.619 C 333.568 8.571 333.77 7.637 334.174 6.816 C 334.577 5.996 335.158 5.361 335.917 4.912 C 336.675 4.463 337.556 4.238 338.558 4.238 C 339.984 4.238 341.148 4.674 342.05 5.547 C 342.951 6.419 343.454 7.604 343.558 9.102 L 343.578 9.824 C 343.578 11.445 343.125 12.746 342.221 13.726 C 341.316 14.705 340.101 15.195 338.578 15.195 C 337.055 15.195 335.839 14.707 334.931 13.73 C 334.022 12.754 333.568 11.426 333.568 9.746 L 333.568 9.619 M 336.39 9.824 C 336.39 10.827 336.579 11.593 336.957 12.124 C 337.334 12.655 337.875 12.92 338.578 12.92 C 339.262 12.92 339.795 12.658 340.18 12.134 C 340.564 11.61 340.756 10.771 340.756 9.619 C 340.756 8.636 340.564 7.874 340.18 7.334 C 339.795 6.794 339.255 6.523 338.558 6.523 C 337.868 6.523 337.334 6.792 336.957 7.329 C 336.579 7.866 336.39 8.698 336.39 9.824 Z M 349.914 4.434 L 350.002 5.654 C 350.757 4.71 351.769 4.238 353.039 4.238 C 354.159 4.238 354.992 4.567 355.539 5.225 C 356.086 5.882 356.366 6.865 356.379 8.174 L 356.379 15 L 353.556 15 L 353.556 8.242 C 353.556 7.643 353.426 7.209 353.166 6.938 C 352.905 6.668 352.473 6.533 351.867 6.533 C 351.073 6.533 350.477 6.872 350.08 7.549 L 350.08 15 L 347.258 15 L 347.258 4.434 L 349.914 4.434 Z M 366.24 12.08 C 366.24 11.735 366.069 11.463 365.727 11.265 C 365.386 11.066 364.837 10.889 364.082 10.732 C 361.569 10.205 360.312 9.137 360.312 7.529 C 360.312 6.592 360.701 5.809 361.479 5.181 C 362.257 4.552 363.275 4.238 364.531 4.238 C 365.872 4.238 366.945 4.554 367.749 5.186 C 368.553 5.817 368.955 6.637 368.955 7.646 L 366.133 7.646 C 366.133 7.243 366.002 6.909 365.742 6.646 C 365.482 6.382 365.075 6.25 364.521 6.25 C 364.046 6.25 363.678 6.357 363.418 6.572 C 363.157 6.787 363.027 7.061 363.027 7.393 C 363.027 7.705 363.175 7.957 363.472 8.149 C 363.768 8.341 364.267 8.507 364.971 8.647 C 365.674 8.787 366.266 8.945 366.748 9.121 C 368.239 9.668 368.984 10.615 368.984 11.963 C 368.984 12.926 368.571 13.706 367.744 14.302 C 366.917 14.897 365.849 15.195 364.541 15.195 C 363.655 15.195 362.869 15.037 362.182 14.722 C 361.496 14.406 360.957 13.973 360.566 13.423 C 360.176 12.873 359.98 12.279 359.98 11.641 L 362.656 11.641 C 362.682 12.142 362.868 12.526 363.213 12.793 C 363.558 13.06 364.02 13.193 364.599 13.193 C 365.14 13.193 365.548 13.091 365.825 12.886 C 366.102 12.681 366.24 12.412 366.24 12.08 Z M 379.129 13.926 C 378.432 14.772 377.469 15.195 376.238 15.195 C 375.105 15.195 374.241 14.87 373.645 14.219 C 373.05 13.568 372.745 12.614 372.732 11.357 L 372.732 4.434 L 375.555 4.434 L 375.555 11.26 C 375.555 12.36 376.056 12.91 377.058 12.91 C 378.015 12.91 378.673 12.578 379.031 11.914 L 379.031 4.434 L 381.863 4.434 L 381.863 15 L 379.207 15 L 379.129 13.926 Z M 388.971 15 L 386.139 15 L 386.139 0 L 388.971 0 L 388.971 15 Z M 396.674 1.836 L 396.674 4.434 L 398.48 4.434 L 398.48 6.504 L 396.674 6.504 L 396.674 11.777 C 396.674 12.168 396.749 12.448 396.898 12.617 C 397.048 12.786 397.334 12.871 397.758 12.871 C 398.07 12.871 398.347 12.848 398.588 12.803 L 398.588 14.941 C 398.034 15.111 397.465 15.195 396.879 15.195 C 394.9 15.195 393.89 14.196 393.851 12.197 L 393.851 6.504 L 392.308 6.504 L 392.308 4.434 L 393.851 4.434 L 393.851 1.836 L 396.674 1.836 Z M 408.176 15 C 408.045 14.746 407.951 14.43 407.892 14.053 C 407.209 14.814 406.32 15.195 405.226 15.195 C 404.191 15.195 403.334 14.896 402.653 14.297 C 401.973 13.698 401.633 12.943 401.633 12.031 C 401.633 10.911 402.048 10.052 402.878 9.453 C 403.708 8.854 404.907 8.551 406.476 8.545 L 407.775 8.545 L 407.775 7.939 C 407.775 7.451 407.65 7.061 407.399 6.768 C 407.149 6.475 406.753 6.328 406.213 6.328 C 405.737 6.328 405.365 6.442 405.095 6.67 C 404.824 6.898 404.689 7.21 404.689 7.607 L 401.867 7.607 C 401.867 6.995 402.056 6.429 402.433 5.908 C 402.811 5.387 403.345 4.979 404.035 4.683 C 404.725 4.386 405.5 4.238 406.359 4.238 C 407.661 4.238 408.695 4.565 409.46 5.22 C 410.225 5.874 410.607 6.794 410.607 7.979 L 410.607 12.559 C 410.614 13.561 410.754 14.32 411.027 14.834 L 411.027 15 L 408.176 15 M 405.842 13.037 C 406.258 13.037 406.642 12.944 406.994 12.759 C 407.346 12.573 407.606 12.324 407.775 12.012 L 407.775 10.195 L 406.721 10.195 C 405.308 10.195 404.556 10.684 404.465 11.66 L 404.455 11.826 C 404.455 12.178 404.579 12.467 404.826 12.695 C 405.073 12.923 405.412 13.037 405.842 13.037 Z M 417.373 4.434 L 417.461 5.654 C 418.216 4.71 419.228 4.238 420.498 4.238 C 421.618 4.238 422.451 4.567 422.998 5.225 C 423.545 5.882 423.825 6.865 423.838 8.174 L 423.838 15 L 421.015 15 L 421.015 8.242 C 421.015 7.643 420.885 7.209 420.625 6.938 C 420.364 6.668 419.931 6.533 419.326 6.533 C 418.532 6.533 417.936 6.872 417.539 7.549 L 417.539 15 L 414.717 15 L 414.717 4.434 L 417.373 4.434 Z M 431.355 1.836 L 431.355 4.434 L 433.162 4.434 L 433.162 6.504 L 431.355 6.504 L 431.355 11.777 C 431.355 12.168 431.43 12.448 431.58 12.617 C 431.73 12.786 432.016 12.871 432.439 12.871 C 432.752 12.871 433.028 12.848 433.269 12.803 L 433.269 14.941 C 432.716 15.111 432.146 15.195 431.56 15.195 C 429.581 15.195 428.572 14.196 428.533 12.197 L 428.533 6.504 L 426.99 6.504 L 426.99 4.434 L 428.533 4.434 L 428.533 1.836 L 431.355 1.836 Z M 442.457 12.08 C 442.457 11.735 442.286 11.463 441.944 11.265 C 441.602 11.066 441.054 10.889 440.299 10.732 C 437.786 10.205 436.529 9.137 436.529 7.529 C 436.529 6.592 436.918 5.809 437.696 5.181 C 438.474 4.552 439.491 4.238 440.748 4.238 C 442.089 4.238 443.162 4.554 443.966 5.186 C 444.77 5.817 445.172 6.637 445.172 7.646 L 442.349 7.646 C 442.349 7.243 442.219 6.909 441.959 6.646 C 441.698 6.382 441.292 6.25 440.738 6.25 C 440.263 6.25 439.895 6.357 439.635 6.572 C 439.374 6.787 439.244 7.061 439.244 7.393 C 439.244 7.705 439.392 7.957 439.688 8.149 C 439.985 8.341 440.484 8.507 441.187 8.647 C 441.89 8.787 442.483 8.945 442.965 9.121 C 444.456 9.668 445.201 10.615 445.201 11.963 C 445.201 12.926 444.788 13.706 443.961 14.302 C 443.134 14.897 442.066 15.195 440.758 15.195 C 439.872 15.195 439.086 15.037 438.399 14.722 C 437.712 14.406 437.174 13.973 436.783 13.423 C 436.392 12.873 436.197 12.279 436.197 11.641 L 438.873 11.641 C 438.899 12.142 439.084 12.526 439.43 12.793 C 439.775 13.06 440.237 13.193 440.816 13.193 C 441.357 13.193 441.765 13.091 442.042 12.886 C 442.319 12.681 442.457 12.412 442.457 12.08 Z " fill-opacity="1" fill="#a6a9aa" stroke="none" stroke-width="1" stroke-linecap="square" stroke-linejoin="miter"/><defs/></g><g id="obj_5" transform="matrix(1,0,0,1,271.3,17.056)" opacity="1" display="inline"><path d="M 37.063 10.094 L 23.125 10.094 L 23.125 48 L 13.75 48 L 13.75 10.094 L 0 10.094 L 0 2.5 L 37.063 2.5 L 37.063 10.094 Z M 58.375 48.625 C 53.417 48.625 49.38 47.104 46.266 44.062 C 43.151 41.021 41.594 36.969 41.594 31.906 L 41.594 31.031 C 41.594 27.635 42.25 24.599 43.563 21.922 C 44.875 19.245 46.734 17.182 49.141 15.734 C 51.547 14.286 54.292 13.562 57.375 13.562 C 62 13.562 65.641 15.021 68.297 17.937 C 70.953 20.854 72.281 24.99 72.281 30.344 L 72.281 34.031 L 50.75 34.031 C 51.042 36.24 51.922 38.01 53.391 39.344 C 54.859 40.677 56.719 41.344 58.969 41.344 C 62.448 41.344 65.167 40.083 67.125 37.562 L 71.563 42.531 C 70.208 44.448 68.375 45.943 66.063 47.016 C 63.75 48.089 61.188 48.625 58.375 48.625 M 57.344 20.875 C 55.552 20.875 54.099 21.479 52.984 22.687 C 51.87 23.896 51.156 25.625 50.844 27.875 L 63.406 27.875 L 63.406 27.156 C 63.365 25.156 62.823 23.609 61.781 22.516 C 60.74 21.422 59.26 20.875 57.344 20.875 Z M 98 48 C 97.583 47.187 97.281 46.177 97.094 44.969 C 94.906 47.406 92.063 48.625 88.563 48.625 C 85.25 48.625 82.505 47.667 80.328 45.75 C 78.151 43.833 77.063 41.417 77.063 38.5 C 77.063 34.917 78.391 32.167 81.047 30.25 C 83.703 28.333 87.542 27.365 92.563 27.344 L 96.719 27.344 L 96.719 25.406 C 96.719 23.844 96.318 22.594 95.516 21.656 C 94.714 20.719 93.448 20.25 91.719 20.25 C 90.198 20.25 89.005 20.615 88.141 21.344 C 87.276 22.073 86.844 23.073 86.844 24.344 L 77.813 24.344 C 77.813 22.385 78.417 20.573 79.625 18.906 C 80.833 17.24 82.542 15.932 84.75 14.984 C 86.958 14.036 89.438 13.562 92.188 13.562 C 96.354 13.562 99.661 14.609 102.109 16.703 C 104.557 18.797 105.781 21.74 105.781 25.531 L 105.781 40.187 C 105.802 43.396 106.25 45.823 107.125 47.469 L 107.125 48 L 98 48 M 90.531 41.719 C 91.865 41.719 93.094 41.422 94.219 40.828 C 95.344 40.234 96.177 39.437 96.719 38.437 L 96.719 32.625 L 93.344 32.625 C 88.823 32.625 86.417 34.187 86.125 37.312 L 86.094 37.844 C 86.094 38.969 86.49 39.896 87.281 40.625 C 88.073 41.354 89.156 41.719 90.531 41.719 Z M 127.781 41.344 C 129.448 41.344 130.802 40.885 131.844 39.969 C 132.885 39.052 133.427 37.833 133.469 36.312 L 141.938 36.312 C 141.917 38.604 141.292 40.703 140.063 42.609 C 138.833 44.516 137.151 45.995 135.016 47.047 C 132.88 48.099 130.521 48.625 127.938 48.625 C 123.104 48.625 119.292 47.089 116.5 44.016 C 113.708 40.943 112.313 36.698 112.313 31.281 L 112.313 30.687 C 112.313 25.479 113.698 21.323 116.469 18.219 C 119.24 15.115 123.042 13.562 127.875 13.562 C 132.104 13.562 135.495 14.766 138.047 17.172 C 140.599 19.578 141.896 22.781 141.938 26.781 L 133.469 26.781 C 133.427 25.031 132.885 23.609 131.844 22.516 C 130.802 21.422 129.427 20.875 127.719 20.875 C 125.615 20.875 124.026 21.641 122.953 23.172 C 121.88 24.703 121.344 27.187 121.344 30.625 L 121.344 31.562 C 121.344 35.042 121.875 37.542 122.938 39.062 C 124 40.583 125.615 41.344 127.781 41.344 Z M 156.906 17.875 C 159.302 15 162.313 13.562 165.938 13.562 C 173.271 13.562 176.99 17.823 177.094 26.344 L 177.094 48 L 168.063 48 L 168.063 26.594 C 168.063 24.656 167.646 23.224 166.813 22.297 C 165.979 21.37 164.594 20.906 162.656 20.906 C 160.01 20.906 158.094 21.927 156.906 23.969 L 156.906 48 L 147.875 48 L 147.875 0 L 156.906 0 L 156.906 17.875 Z M 200.469 48.625 C 195.51 48.625 191.474 47.104 188.359 44.062 C 185.245 41.021 183.688 36.969 183.688 31.906 L 183.688 31.031 C 183.688 27.635 184.344 24.599 185.656 21.922 C 186.969 19.245 188.828 17.182 191.234 15.734 C 193.641 14.286 196.385 13.562 199.469 13.562 C 204.094 13.562 207.734 15.021 210.391 17.937 C 213.047 20.854 214.375 24.99 214.375 30.344 L 214.375 34.031 L 192.844 34.031 C 193.135 36.24 194.016 38.01 195.484 39.344 C 196.953 40.677 198.813 41.344 201.063 41.344 C 204.542 41.344 207.26 40.083 209.219 37.562 L 213.656 42.531 C 212.302 44.448 210.469 45.943 208.156 47.016 C 205.844 48.089 203.281 48.625 200.469 48.625 M 199.438 20.875 C 197.646 20.875 196.193 21.479 195.078 22.687 C 193.964 23.896 193.25 25.625 192.938 27.875 L 205.5 27.875 L 205.5 27.156 C 205.458 25.156 204.917 23.609 203.875 22.516 C 202.833 21.422 201.354 20.875 199.438 20.875 Z M 239.5 22.656 C 238.271 22.49 237.188 22.406 236.25 22.406 C 232.833 22.406 230.594 23.562 229.531 25.875 L 229.531 48 L 220.5 48 L 220.5 14.187 L 229.031 14.187 L 229.281 18.219 C 231.094 15.115 233.604 13.562 236.813 13.562 C 237.813 13.562 238.75 13.698 239.625 13.969 L 239.5 22.656 Z M 263.156 38.656 C 263.156 37.552 262.609 36.682 261.516 36.047 C 260.422 35.411 258.667 34.844 256.25 34.344 C 248.208 32.656 244.188 29.24 244.188 24.094 C 244.188 21.094 245.432 18.589 247.922 16.578 C 250.411 14.568 253.667 13.562 257.688 13.562 C 261.979 13.562 265.411 14.573 267.984 16.594 C 270.557 18.615 271.844 21.24 271.844 24.469 L 262.813 24.469 C 262.813 23.177 262.396 22.109 261.563 21.266 C 260.729 20.422 259.427 20 257.656 20 C 256.135 20 254.958 20.344 254.125 21.031 C 253.292 21.719 252.875 22.594 252.875 23.656 C 252.875 24.656 253.349 25.464 254.297 26.078 C 255.245 26.693 256.844 27.224 259.094 27.672 C 261.344 28.12 263.24 28.625 264.781 29.187 C 269.552 30.937 271.938 33.969 271.938 38.281 C 271.938 41.365 270.615 43.859 267.969 45.766 C 265.323 47.672 261.906 48.625 257.719 48.625 C 254.885 48.625 252.37 48.12 250.172 47.109 C 247.974 46.099 246.25 44.714 245 42.953 C 243.75 41.193 243.125 39.292 243.125 37.25 L 251.688 37.25 C 251.771 38.854 252.365 40.083 253.469 40.937 C 254.573 41.792 256.052 42.219 257.906 42.219 C 259.635 42.219 260.943 41.891 261.828 41.234 C 262.714 40.578 263.156 39.719 263.156 38.656 Z " fill-opacity="1" fill="#3267ad" stroke="none" stroke-width="1" stroke-linecap="square" stroke-linejoin="miter"/><defs/></g><g id="obj_6" transform="matrix(1,0,0,1,0,0)" opacity="1" display="inline"><path d="M 14.187 40.588 C 16.381 40.588 18.568 41.369 19.592 41.792 L 19.592 26.009 C 19.592 22.472 22.47 19.594 26.007 19.594 L 41.79 19.591 C 41.378 18.596 40.587 16.395 40.587 14.188 C 40.587 6.365 46.951 0 54.774 0 C 62.597 0 68.961 6.366 68.961 14.188 C 68.961 16.382 68.179 18.571 67.757 19.594 L 83.54 19.594 C 87.078 19.594 89.955 22.472 89.955 26.009 L 89.955 33.266 C 89.985 33.386 90 33.513 90 33.644 L 90 42.374 C 90 43.439 89.542 44.337 88.745 44.837 C 87.946 45.339 86.938 45.363 85.98 44.899 C 85.957 44.887 83.578 43.771 81.412 43.771 C 75.344 43.771 70.407 48.707 70.407 54.774 C 70.407 60.841 75.344 65.777 81.412 65.777 C 83.593 65.777 85.959 64.66 85.98 64.649 C 86.938 64.187 87.947 64.209 88.745 64.711 C 89.542 65.212 90 66.111 90 67.175 L 90 78.016 C 90 78.147 89.984 78.274 89.955 78.395 L 89.955 83.541 C 89.955 87.078 87.077 89.957 83.54 89.957 L 26.009 89.957 C 22.473 89.957 19.594 87.078 19.593 83.541 L 19.59 67.761 C 18.594 68.172 16.395 68.963 14.188 68.963 C 6.365 68.962 0 62.597 0 54.775 C 0 46.953 6.365 40.588 14.187 40.588 Z " fill-opacity="1" fill="#58adde" stroke="none" stroke-width="1" stroke-linecap="square" stroke-linejoin="miter"/><defs/></g><g id="obj_7" transform="matrix(1,0,0,1,105.3,16.297)" opacity="1" display="inline"><path d="M 37.093 33.5 C 36.739 38.396 34.932 42.25 31.671 45.062 C 28.411 47.875 24.114 49.281 18.781 49.281 C 12.947 49.281 8.359 47.317 5.015 43.39 C 1.671 39.463 0 34.073 0 27.218 L 0 24.437 C 0 20.062 0.77 16.208 2.312 12.875 C 3.854 9.541 6.057 6.984 8.921 5.203 C 11.786 3.422 15.114 2.531 18.906 2.531 C 24.156 2.531 28.385 3.937 31.593 6.75 C 34.802 9.562 36.656 13.51 37.156 18.593 L 27.781 18.593 C 27.552 15.656 26.734 13.526 25.328 12.203 C 23.921 10.88 21.781 10.218 18.906 10.218 C 15.781 10.218 13.442 11.338 11.89 13.578 C 10.338 15.817 9.541 19.291 9.5 24 L 9.5 27.437 C 9.5 32.354 10.244 35.948 11.734 38.218 C 13.223 40.489 15.572 41.625 18.781 41.625 C 21.677 41.625 23.838 40.963 25.265 39.64 C 26.692 38.317 27.51 36.271 27.718 33.5 L 37.093 33.5 Z M 67.843 36.718 C 67.843 34.948 67.218 33.588 65.968 32.64 C 64.718 31.692 62.468 30.692 59.218 29.64 C 55.968 28.588 53.395 27.552 51.5 26.531 C 46.333 23.739 43.75 19.979 43.75 15.25 C 43.75 12.791 44.442 10.599 45.828 8.672 C 47.213 6.745 49.203 5.239 51.796 4.156 C 54.39 3.073 57.302 2.531 60.531 2.531 C 63.781 2.531 66.677 3.12 69.218 4.297 C 71.76 5.474 73.734 7.135 75.14 9.281 C 76.546 11.427 77.25 13.864 77.25 16.593 L 67.875 16.593 C 67.875 14.51 67.218 12.89 65.906 11.734 C 64.593 10.578 62.75 10 60.375 10 C 58.083 10 56.302 10.484 55.031 11.453 C 53.76 12.422 53.125 13.698 53.125 15.281 C 53.125 16.76 53.869 18 55.359 19 C 56.848 20 59.041 20.937 61.937 21.812 C 67.27 23.416 71.156 25.406 73.593 27.781 C 76.031 30.156 77.25 33.114 77.25 36.656 C 77.25 40.593 75.76 43.682 72.781 45.922 C 69.802 48.161 65.791 49.281 60.75 49.281 C 57.25 49.281 54.062 48.64 51.187 47.359 C 48.312 46.078 46.119 44.323 44.609 42.093 C 43.098 39.864 42.343 37.281 42.343 34.343 L 51.75 34.343 C 51.75 39.364 54.75 41.875 60.75 41.875 C 62.979 41.875 64.718 41.422 65.968 40.515 C 67.218 39.609 67.843 38.343 67.843 36.718 Z M 86.468 48.656 L 86.468 21.468 L 81.437 21.468 L 81.437 14.843 L 86.468 14.843 L 86.468 11.968 C 86.468 8.177 87.557 5.234 89.734 3.14 C 91.911 1.047 94.958 0 98.875 0 C 100.125 0 101.656 0.208 103.468 0.625 L 103.375 7.625 C 102.625 7.437 101.708 7.343 100.625 7.343 C 97.229 7.343 95.531 8.937 95.531 12.125 L 95.531 14.843 L 102.25 14.843 L 102.25 21.468 L 95.531 21.468 L 95.531 48.656 L 86.468 48.656 Z M 106.531 31.437 C 106.531 28.083 107.177 25.093 108.468 22.468 C 109.76 19.843 111.619 17.812 114.046 16.375 C 116.473 14.937 119.291 14.218 122.5 14.218 C 127.062 14.218 130.786 15.614 133.671 18.406 C 136.557 21.198 138.166 24.989 138.5 29.781 L 138.562 32.093 C 138.562 37.281 137.114 41.442 134.218 44.578 C 131.322 47.713 127.437 49.281 122.562 49.281 C 117.687 49.281 113.796 47.718 110.89 44.593 C 107.984 41.468 106.531 37.218 106.531 31.843 L 106.531 31.437 M 115.562 32.093 C 115.562 35.302 116.166 37.755 117.375 39.453 C 118.583 41.151 120.312 42 122.562 42 C 124.75 42 126.458 41.161 127.687 39.484 C 128.916 37.807 129.531 35.125 129.531 31.437 C 129.531 28.291 128.916 25.854 127.687 24.125 C 126.458 22.396 124.729 21.531 122.5 21.531 C 120.291 21.531 118.583 22.39 117.375 24.109 C 116.166 25.828 115.562 28.489 115.562 32.093 Z M 164.125 23.312 C 162.895 23.146 161.812 23.062 160.875 23.062 C 157.458 23.062 155.218 24.218 154.156 26.531 L 154.156 48.656 L 145.125 48.656 L 145.125 14.843 L 153.656 14.843 L 153.906 18.875 C 155.718 15.771 158.229 14.218 161.437 14.218 C 162.437 14.218 163.375 14.354 164.25 14.625 L 164.125 23.312 Z " fill-opacity="1" fill="#4d4b50" stroke="none" stroke-width="1" stroke-linecap="square" stroke-linejoin="miter"/><defs/></g></g></svg>