<svg version="1.1" width="600" height="94" viewBox="0 0 600 94" xmlns="http://www.w3.org/2000/svg" xmlns:xlink="http://www.w3.org/1999/xlink"><defs xmlns="http://www.w3.org/2000/svg"><style xmlns="http://www.w3.org/1999/xhtml" type="text/css">@import url(https://fonts.googleapis.com/css?family=Roboto:regular,100,300,500,700,900,italic,100italic,300italic,500italic,700italic,900italic);</style></defs><g xmlns="http://www.w3.org/2000/svg" id="obj_1"><g id="obj_6" transform="matrix(1,0,0,1,56.232,6.716)" opacity="1" display="inline"><path d="M 10.241 28.489 C 11.826 28.489 13.404 29.037 14.144 29.334 L 14.144 18.255 C 14.144 15.773 16.221 13.753 18.774 13.753 L 30.168 13.751 C 29.872 13.053 29.301 11.508 29.301 9.958 C 29.301 4.468 33.895 0 39.542 0 C 45.191 0 49.783 4.468 49.783 9.958 C 49.783 11.499 49.219 13.036 48.915 13.753 L 60.31 13.753 C 62.863 13.753 64.939 15.773 64.939 18.255 L 64.939 23.35 C 64.962 23.434 64.972 23.523 64.972 23.615 L 64.972 29.742 C 64.972 30.491 64.64 31.121 64.066 31.473 C 63.488 31.825 62.761 31.841 62.07 31.514 C 62.053 31.507 60.336 30.723 58.773 30.723 C 54.391 30.723 50.827 34.187 50.827 38.446 C 50.827 42.705 54.391 46.17 58.773 46.17 C 60.347 46.17 62.055 45.384 62.07 45.377 C 62.761 45.053 63.489 45.069 64.066 45.421 C 64.64 45.772 64.972 46.404 64.972 47.149 L 64.972 54.76 C 64.972 54.853 64.962 54.941 64.939 55.026 L 64.939 58.637 C 64.939 61.12 62.862 63.142 60.31 63.142 L 18.776 63.142 C 16.223 63.142 14.146 61.12 14.145 58.637 L 14.143 47.561 C 13.423 47.85 11.836 48.405 10.243 48.405 C 4.595 48.405 0 43.937 0 38.447 C 0 32.957 4.595 28.489 10.241 28.489 Z " fill-opacity="1" fill="#ffffff" stroke="none" stroke-width="1" stroke-linecap="square" stroke-linejoin="miter"/><defs/></g><g id="obj_7" transform="matrix(1,0,0,1,138.561,18.101)" opacity="1" display="inline"><path d="M 32.842 32.08 C 32.315 36.592 30.65 40.073 27.847 42.524 C 25.044 44.975 21.319 46.201 16.67 46.201 C 11.631 46.201 7.593 44.394 4.556 40.781 C 1.519 37.168 0 32.334 0 26.279 L 0 22.177 C 0 18.213 0.708 14.726 2.124 11.719 C 3.54 8.711 5.547 6.401 8.145 4.79 C 10.743 3.178 13.75 2.373 17.168 2.373 C 21.7 2.373 25.332 3.637 28.067 6.167 C 30.801 8.696 32.393 12.197 32.842 16.67 L 27.188 16.67 C 26.7 13.271 25.64 10.81 24.009 9.287 C 22.378 7.763 20.098 7.002 17.168 7.002 C 13.575 7.002 10.757 8.33 8.716 10.986 C 6.675 13.642 5.655 17.422 5.655 22.324 L 5.655 26.455 C 5.655 31.084 6.621 34.765 8.555 37.5 C 10.489 40.234 13.194 41.601 16.67 41.601 C 19.795 41.601 22.193 40.893 23.863 39.477 C 25.533 38.061 26.641 35.595 27.188 32.08 L 32.842 32.08 Z M 58.086 26.601 C 53.262 25.215 49.751 23.511 47.554 21.489 C 45.357 19.468 44.258 16.972 44.258 14.004 C 44.258 10.644 45.601 7.866 48.286 5.669 C 50.972 3.471 54.463 2.373 58.76 2.373 C 61.69 2.373 64.302 2.939 66.597 4.072 C 68.892 5.205 70.669 6.767 71.929 8.76 C 73.189 10.752 73.819 12.929 73.819 15.293 L 68.164 15.293 C 68.164 12.715 67.344 10.688 65.703 9.214 C 64.063 7.739 61.748 7.002 58.76 7.002 C 55.987 7.002 53.824 7.612 52.271 8.833 C 50.718 10.053 49.942 11.748 49.942 13.916 C 49.942 15.654 50.679 17.124 52.154 18.325 C 53.628 19.526 56.138 20.625 59.683 21.621 C 63.228 22.617 66.001 23.716 68.003 24.917 C 70.005 26.118 71.49 27.519 72.456 29.121 C 73.423 30.722 73.907 32.607 73.907 34.775 C 73.907 38.232 72.559 41.001 69.864 43.081 C 67.168 45.161 63.565 46.201 59.053 46.201 C 56.123 46.201 53.389 45.639 50.85 44.516 C 48.311 43.393 46.353 41.855 44.976 39.902 C 43.599 37.949 42.91 35.732 42.91 33.252 L 48.565 33.252 C 48.565 35.83 49.517 37.866 51.421 39.36 C 53.326 40.854 55.869 41.601 59.053 41.601 C 62.022 41.601 64.297 40.996 65.879 39.785 C 67.461 38.574 68.252 36.924 68.252 34.834 C 68.252 32.744 67.52 31.128 66.055 29.985 C 64.59 28.843 61.934 27.715 58.086 26.601 Z M 87.93 45.615 L 87.93 18.105 L 82.92 18.105 L 82.92 13.916 L 87.93 13.916 L 87.93 10.664 C 87.93 7.265 88.838 4.638 90.655 2.783 C 92.471 0.927 95.039 0 98.36 0 C 99.61 0 100.85 0.166 102.08 0.498 L 101.787 4.892 C 100.869 4.717 99.893 4.629 98.858 4.629 C 97.1 4.629 95.743 5.141 94.785 6.167 C 93.828 7.192 93.35 8.662 93.35 10.576 L 93.35 13.916 L 100.118 13.916 L 100.118 18.105 L 93.35 18.105 L 93.35 45.615 L 87.93 45.615 Z M 109.659 29.472 C 109.659 26.367 110.269 23.574 111.49 21.094 C 112.71 18.613 114.41 16.699 116.587 15.351 C 118.765 14.004 121.25 13.33 124.043 13.33 C 128.36 13.33 131.851 14.824 134.517 17.812 C 137.183 20.801 138.516 24.775 138.516 29.736 L 138.516 30.117 C 138.516 33.203 137.925 35.971 136.743 38.423 C 135.562 40.874 133.872 42.783 131.675 44.15 C 129.478 45.517 126.953 46.201 124.102 46.201 C 119.805 46.201 116.324 44.707 113.658 41.719 C 110.992 38.73 109.659 34.775 109.659 29.853 L 109.659 29.472 M 115.108 30.117 C 115.108 33.633 115.923 36.455 117.554 38.584 C 119.185 40.713 121.368 41.777 124.102 41.777 C 126.856 41.777 129.043 40.698 130.664 38.54 C 132.285 36.382 133.096 33.359 133.096 29.472 C 133.096 25.996 132.271 23.178 130.62 21.02 C 128.97 18.862 126.778 17.783 124.043 17.783 C 121.368 17.783 119.209 18.847 117.569 20.976 C 115.928 23.105 115.108 26.152 115.108 30.117 Z M 165.635 18.779 C 164.815 18.642 163.926 18.574 162.969 18.574 C 159.414 18.574 157.002 20.088 155.733 23.115 L 155.733 45.615 L 150.313 45.615 L 150.313 13.916 L 155.586 13.916 L 155.674 17.578 C 157.452 14.746 159.971 13.33 163.233 13.33 C 164.287 13.33 165.088 13.467 165.635 13.74 L 165.635 18.779 Z M 205.938 7.588 L 192.227 7.588 L 192.227 45.615 L 186.631 45.615 L 186.631 7.588 L 172.95 7.588 L 172.95 2.959 L 205.938 2.959 L 205.938 7.588 Z M 229.571 46.201 C 225.274 46.201 221.778 44.79 219.082 41.968 C 216.387 39.145 215.039 35.371 215.039 30.644 L 215.039 29.648 C 215.039 26.504 215.64 23.696 216.841 21.225 C 218.042 18.755 219.722 16.821 221.88 15.425 C 224.038 14.028 226.377 13.33 228.897 13.33 C 233.018 13.33 236.221 14.687 238.506 17.402 C 240.791 20.117 241.934 24.004 241.934 29.062 L 241.934 31.318 L 220.459 31.318 C 220.537 34.443 221.451 36.968 223.199 38.891 C 224.947 40.815 227.168 41.777 229.864 41.777 C 231.778 41.777 233.399 41.386 234.727 40.605 C 236.055 39.824 237.217 38.789 238.213 37.5 L 241.524 40.078 C 238.868 44.16 234.883 46.201 229.571 46.201 M 228.897 17.783 C 226.709 17.783 224.873 18.579 223.389 20.171 C 221.905 21.762 220.987 23.994 220.635 26.865 L 236.514 26.865 L 236.514 26.455 C 236.358 23.701 235.616 21.567 234.287 20.053 C 232.959 18.54 231.162 17.783 228.897 17.783 Z M 272.774 45.615 C 272.461 44.99 272.207 43.877 272.012 42.275 C 269.493 44.892 266.485 46.201 262.989 46.201 C 259.864 46.201 257.3 45.317 255.298 43.55 C 253.296 41.782 252.295 39.541 252.295 36.826 C 252.295 33.525 253.55 30.962 256.06 29.136 C 258.57 27.309 262.1 26.396 266.651 26.396 L 271.924 26.396 L 271.924 23.906 C 271.924 22.011 271.358 20.503 270.225 19.38 C 269.092 18.257 267.422 17.695 265.215 17.695 C 263.282 17.695 261.66 18.183 260.352 19.16 C 259.043 20.136 258.389 21.318 258.389 22.705 L 252.94 22.705 C 252.94 21.123 253.501 19.594 254.624 18.12 C 255.747 16.645 257.271 15.478 259.195 14.619 C 261.118 13.76 263.233 13.33 265.537 13.33 C 269.19 13.33 272.051 14.243 274.121 16.069 C 276.192 17.895 277.266 20.41 277.344 23.613 L 277.344 38.203 C 277.344 41.113 277.715 43.427 278.457 45.146 L 278.457 45.615 L 272.774 45.615 M 263.78 41.484 C 265.479 41.484 267.09 41.045 268.614 40.166 C 270.137 39.287 271.241 38.144 271.924 36.738 L 271.924 30.234 L 267.676 30.234 C 261.035 30.234 257.715 32.177 257.715 36.064 C 257.715 37.763 258.282 39.092 259.414 40.049 C 260.547 41.006 262.002 41.484 263.78 41.484 Z M 303.555 41.777 C 305.489 41.777 307.178 41.191 308.623 40.019 C 310.069 38.847 310.869 37.383 311.026 35.625 L 316.153 35.625 C 316.055 37.441 315.43 39.17 314.278 40.81 C 313.125 42.451 311.587 43.76 309.663 44.736 C 307.74 45.713 305.703 46.201 303.555 46.201 C 299.239 46.201 295.806 44.761 293.257 41.88 C 290.708 38.999 289.434 35.058 289.434 30.058 L 289.434 29.15 C 289.434 26.064 290 23.32 291.133 20.918 C 292.266 18.515 293.892 16.65 296.011 15.322 C 298.13 13.994 300.635 13.33 303.526 13.33 C 307.08 13.33 310.035 14.394 312.388 16.523 C 314.742 18.652 315.996 21.416 316.153 24.814 L 311.026 24.814 C 310.869 22.763 310.093 21.079 308.697 19.761 C 307.3 18.442 305.577 17.783 303.526 17.783 C 300.772 17.783 298.638 18.774 297.124 20.757 C 295.611 22.739 294.854 25.605 294.854 29.355 L 294.854 30.381 C 294.854 34.033 295.606 36.845 297.11 38.818 C 298.614 40.791 300.762 41.777 303.555 41.777 Z M 332.666 17.754 C 335.069 14.804 338.194 13.33 342.041 13.33 C 348.741 13.33 352.119 17.109 352.178 24.668 L 352.178 45.615 L 346.758 45.615 L 346.758 24.638 C 346.739 22.353 346.216 20.664 345.191 19.57 C 344.165 18.476 342.569 17.929 340.401 17.929 C 338.643 17.929 337.1 18.398 335.772 19.336 C 334.444 20.273 333.409 21.504 332.666 23.027 L 332.666 45.615 L 327.246 45.615 L 327.246 0.615 L 332.666 0.615 L 332.666 17.754 Z M 378.448 46.201 C 374.151 46.201 370.655 44.79 367.959 41.968 C 365.264 39.145 363.916 35.371 363.916 30.644 L 363.916 29.648 C 363.916 26.504 364.517 23.696 365.718 21.225 C 366.919 18.755 368.599 16.821 370.757 15.425 C 372.915 14.028 375.254 13.33 377.774 13.33 C 381.895 13.33 385.098 14.687 387.383 17.402 C 389.668 20.117 390.811 24.004 390.811 29.062 L 390.811 31.318 L 369.336 31.318 C 369.414 34.443 370.327 36.968 372.076 38.891 C 373.824 40.815 376.045 41.777 378.741 41.777 C 380.655 41.777 382.276 41.386 383.604 40.605 C 384.932 39.824 386.094 38.789 387.09 37.5 L 390.401 40.078 C 387.744 44.16 383.76 46.201 378.448 46.201 M 377.774 17.783 C 375.586 17.783 373.75 18.579 372.266 20.171 C 370.782 21.762 369.864 23.994 369.512 26.865 L 385.391 26.865 L 385.391 26.455 C 385.235 23.701 384.493 21.567 383.164 20.053 C 381.836 18.54 380.039 17.783 377.774 17.783 Z M 417.403 18.779 C 416.582 18.642 415.694 18.574 414.737 18.574 C 411.182 18.574 408.77 20.088 407.5 23.115 L 407.5 45.615 L 402.08 45.615 L 402.08 13.916 L 407.354 13.916 L 407.442 17.578 C 409.219 14.746 411.739 13.33 415 13.33 C 416.055 13.33 416.856 13.467 417.403 13.74 L 417.403 18.779 Z M 445.84 37.207 C 445.84 35.742 445.288 34.604 444.185 33.794 C 443.081 32.983 441.158 32.285 438.413 31.699 C 435.669 31.113 433.492 30.41 431.88 29.59 C 430.269 28.769 429.077 27.793 428.306 26.66 C 427.535 25.527 427.149 24.179 427.149 22.617 C 427.149 20.019 428.247 17.822 430.445 16.025 C 432.642 14.228 435.45 13.33 438.868 13.33 C 442.461 13.33 445.376 14.258 447.613 16.113 C 449.849 17.969 450.967 20.342 450.967 23.232 L 445.518 23.232 C 445.518 21.748 444.888 20.469 443.628 19.394 C 442.368 18.32 440.782 17.783 438.868 17.783 C 436.895 17.783 435.352 18.213 434.239 19.072 C 433.125 19.931 432.569 21.054 432.569 22.441 C 432.569 23.75 433.086 24.736 434.121 25.4 C 435.157 26.064 437.027 26.699 439.732 27.304 C 442.437 27.91 444.629 28.633 446.309 29.472 C 447.989 30.312 449.234 31.323 450.044 32.505 C 450.855 33.686 451.26 35.127 451.26 36.826 C 451.26 39.658 450.127 41.928 447.862 43.637 C 445.596 45.346 442.657 46.201 439.043 46.201 C 436.504 46.201 434.258 45.752 432.305 44.853 C 430.352 43.955 428.824 42.7 427.72 41.089 C 426.617 39.477 426.065 37.734 426.065 35.859 L 431.485 35.859 C 431.582 37.676 432.31 39.116 433.667 40.18 C 435.025 41.245 436.817 41.777 439.043 41.777 C 441.094 41.777 442.74 41.362 443.98 40.532 C 445.22 39.702 445.84 38.594 445.84 37.207 Z " fill-opacity="1" fill="#ffffff" stroke="none" stroke-width="1" stroke-linecap="square" stroke-linejoin="miter"/><defs/></g></g></svg>