<svg fill="#3267AD" xmlns:dc="http://purl.org/dc/elements/1.1/" xmlns:cc="http://creativecommons.org/ns#" xmlns:rdf="http://www.w3.org/1999/02/22-rdf-syntax-ns#" xmlns:svg="http://www.w3.org/2000/svg" xmlns="http://www.w3.org/2000/svg" xmlns:sodipodi="http://sodipodi.sourceforge.net/DTD/sodipodi-0.dtd" xmlns:inkscape="http://www.inkscape.org/namespaces/inkscape" version="1.1" x="0px" y="0px" viewBox="0 0 100 100"><g transform="translate(0,-952.36218)"><path style="text-indent:0;text-transform:none;direction:ltr;block-progression:tb;baseline-shift:baseline;color:#000000;enable-background:accumulate;" d="m 50,964.36218 c -9.62721,0 -18.347212,1.6964 -24.84375,4.5625 -3.248269,1.4331 -5.965094,3.1302 -7.9375,5.1875 -1.972406,2.0573 -3.21875,4.5664 -3.21875,7.25 l 0,42.00002 c 0,2.6836 1.246349,5.1614 3.21875,7.2188 1.972401,2.0573 4.689237,3.7856 7.9375,5.2187 6.496526,2.8661 15.21654,4.5625 24.84375,4.5625 9.627258,0 18.347235,-1.6964 24.84375,-4.5625 3.248257,-1.4331 5.965107,-3.1614 7.9375,-5.2187 C 84.753643,1028.5236 86,1026.0458 86,1023.3622 l 0,-42.00002 c 0,-2.6836 -1.246362,-5.1927 -3.21875,-7.25 -1.972388,-2.0573 -4.689248,-3.7544 -7.9375,-5.1875 -6.496503,-2.8661 -15.216492,-4.5625 -24.84375,-4.5625 z m 0,4 c 9.150402,0 17.409693,1.6559 23.21875,4.2188 2.904528,1.2814 5.187657,2.7806 6.65625,4.3124 1.468593,1.5319 2.125,3.0102 2.125,4.4688 0,1.4586 -0.656407,2.9057 -2.125,4.4375 -1.468593,1.5318 -3.751722,3.0311 -6.65625,4.3125 -5.809057,2.5628 -14.068348,4.25 -23.21875,4.25 -9.15035,0 -17.409653,-1.6872 -23.21875,-4.25 -2.904549,-1.2814 -5.18764,-2.7807 -6.65625,-4.3125 -1.46861,-1.5318 -2.125,-2.9789 -2.125,-4.4375 0,-1.4586 0.65639,-2.9369 2.125,-4.4688 1.46861,-1.5318 3.751701,-3.031 6.65625,-4.3124 5.809097,-2.5629 14.0684,-4.2188 23.21875,-4.2188 z m -32,20.9688 c 1.885785,1.7286 4.314015,3.2148 7.15625,4.4687 6.496538,2.8661 15.21654,4.5625 24.84375,4.5625 9.627258,0 18.347247,-1.6964 24.84375,-4.5625 2.84222,-1.2539 5.27047,-2.7401 7.15625,-4.4687 l 0,6.0312 c 0,1.4586 -0.656407,2.9057 -2.125,4.4375 -1.468593,1.53182 -3.751722,3.03112 -6.65625,4.31252 -5.809057,2.5628 -14.068348,4.25 -23.21875,4.25 -9.15035,0 -17.409653,-1.6872 -23.21875,-4.25 -2.904549,-1.2814 -5.18764,-2.7807 -6.65625,-4.31252 -1.46861,-1.5318 -2.125,-2.9789 -2.125,-4.4375 l 0,-6.0312 z m 0,14.00002 c 1.885785,1.7285 4.314015,3.2147 7.15625,4.4687 6.496538,2.8661 15.21654,4.5625 24.84375,4.5625 9.627258,0 18.347247,-1.6964 24.84375,-4.5625 2.84222,-1.254 5.27047,-2.7402 7.15625,-4.4687 l 0,6.0312 c 0,1.4586 -0.656407,2.9057 -2.125,4.4375 -1.468593,1.5318 -3.751722,3.0311 -6.65625,4.3125 -5.809057,2.5628 -14.068348,4.25 -23.21875,4.25 -9.15035,0 -17.409653,-1.6872 -23.21875,-4.25 -2.904549,-1.2814 -5.18764,-2.7807 -6.65625,-4.3125 -1.46861,-1.5318 -2.125,-2.9789 -2.125,-4.4375 l 0,-6.0312 z m 0,14 c 1.885785,1.7285 4.314015,3.2147 7.15625,4.4687 6.496538,2.8661 15.21654,4.5625 24.84375,4.5625 9.627258,0 18.347247,-1.6964 24.84375,-4.5625 2.84222,-1.254 5.27047,-2.7402 7.15625,-4.4687 l 0,6.0312 c 0,1.4586 -0.656403,2.9057 -2.125,4.4375 -1.468597,1.5318 -3.720465,3.0311 -6.625,4.3125 -5.80907,2.5628 -14.099598,4.25 -23.25,4.25 -9.15035,0 -17.409666,-1.6872 -23.21875,-4.25 -2.904542,-1.2814 -5.187645,-2.7807 -6.65625,-4.3125 -1.468605,-1.5318 -2.125,-2.9789 -2.125,-4.4375 l 0,-6.0312 z" fill="#3267AD" fill-opacity="1" stroke="none" marker="none" visibility="visible" display="inline" overflow="visible"></path></g></svg>