<svg fill="#D0A331" xmlns:dc="http://purl.org/dc/elements/1.1/" xmlns:cc="http://creativecommons.org/ns#" xmlns:rdf="http://www.w3.org/1999/02/22-rdf-syntax-ns#" xmlns:svg="http://www.w3.org/2000/svg" xmlns="http://www.w3.org/2000/svg" xmlns:sodipodi="http://sodipodi.sourceforge.net/DTD/sodipodi-0.dtd" xmlns:inkscape="http://www.inkscape.org/namespaces/inkscape" viewBox="0 0 16 16" version="1.1" x="0px" y="0px"><g transform="translate(0,-1036.3622)"><g transform="matrix(1.0664186,0,0,1.0664186,58.689952,71.970494)"><g transform="translate(-56.000005,-133)"><path style="color:#000000;font-style:normal;font-variant:normal;font-weight:normal;font-stretch:normal;font-size:medium;line-height:normal;font-family:sans-serif;text-indent:0;text-align:start;text-decoration:none;text-decoration-line:none;text-decoration-style:solid;text-decoration-color:#000000;letter-spacing:normal;word-spacing:normal;text-transform:none;direction:ltr;block-progression:tb;writing-mode:lr-tb;baseline-shift:baseline;text-anchor:start;white-space:normal;clip-rule:nonzero;display:inline;overflow:visible;visibility:visible;opacity:1;isolation:auto;mix-blend-mode:normal;color-interpolation:sRGB;color-interpolation-filters:linearRGB;solid-color:#000000;solid-opacity:1;fill:#D0A331;fill-opacity:1;fill-rule:nonzero;stroke:none;stroke-width:0.93771553;stroke-linecap:butt;stroke-linejoin:round;stroke-miterlimit:4;stroke-dasharray:none;stroke-dashoffset:0;stroke-opacity:1;color-rendering:auto;image-rendering:auto;shape-rendering:auto;text-rendering:auto;enable-background:accumulate" d="M 4.9960938,2.0039062 C 3.9802089,1.9505853 2.9614454,2.2897237 2.2109375,3.0410156 0.70954307,4.544026 0.86729496,7.0683685 2.4726562,8.6757812 l 0.5136719,0.5136719 4.6621094,4.6660159 c 0.1950388,0.193887 0.5100393,0.193887 0.7050781,0 L 13.013672,9.1894531 13.527344,8.6757812 C 15.132778,7.0683685 15.2885,4.544026 13.787109,3.0410156 12.285787,1.5381119 9.76725,1.697808 8.1621094,3.3046875 L 8,3.4667969 7.8378906,3.3046875 C 7.0354005,2.5012477 6.0125131,2.057867 4.9960938,2.0039062 Z" transform="matrix(0.93771808,0,0,0.93771808,0.96537601,1037.3275)"></path></g></g></g></svg>