<svg fill="#D0A331" xmlns="http://www.w3.org/2000/svg" xmlns:xlink="http://www.w3.org/1999/xlink" version="1.1" x="0px" y="0px" viewBox="0 0 100 100" enable-background="new 0 0 100 100" xml:space="preserve"><g><path fill="#D0A331" d="M31.799,38.988h36.402c1.795,0,3.25-1.455,3.25-3.25s-1.455-3.25-3.25-3.25H31.799   c-1.795,0-3.25,1.455-3.25,3.25S30.004,38.988,31.799,38.988z"></path><path fill="#D0A331" d="M68.201,46.75H31.799c-1.795,0-3.25,1.455-3.25,3.25s1.455,3.25,3.25,3.25h36.402   c1.795,0,3.25-1.455,3.25-3.25S69.996,46.75,68.201,46.75z"></path><path fill="#D0A331" d="M68.201,61.012H31.799c-1.795,0-3.25,1.455-3.25,3.25s1.455,3.25,3.25,3.25h36.402   c1.795,0,3.25-1.455,3.25-3.25S69.996,61.012,68.201,61.012z"></path></g></svg>