<svg version="1.1" width="800" height="600" viewBox="0 0 800 600" xmlns="http://www.w3.org/2000/svg" xmlns:xlink="http://www.w3.org/1999/xlink"><g xmlns="http://www.w3.org/2000/svg" id="obj_2"><g id="obj_3" transform="matrix(1,0,0,1,34.574,87.759)" opacity="1" display="inline"><path d="M 13.541 38.74 C 15.635 38.74 17.723 39.486 18.7 39.889 L 18.7 24.825 C 18.7 21.449 21.447 18.702 24.823 18.702 L 39.888 18.699 C 39.495 17.749 38.74 15.649 38.74 13.542 C 38.74 6.075 44.814 0 52.281 0 C 59.748 0 65.822 6.076 65.822 13.542 C 65.822 15.636 65.076 17.725 64.673 18.702 L 79.738 18.702 C 83.115 18.702 85.861 21.449 85.861 24.825 L 85.861 31.751 C 85.89 31.866 85.904 31.987 85.904 32.112 L 85.904 40.445 C 85.904 41.461 85.467 42.318 84.706 42.796 C 83.943 43.275 82.981 43.298 82.067 42.855 C 82.045 42.843 79.774 41.778 77.707 41.778 C 71.915 41.778 67.203 46.489 67.203 52.28 C 67.203 58.071 71.915 62.782 77.707 62.782 C 79.789 62.782 82.047 61.716 82.067 61.706 C 82.981 61.265 83.944 61.286 84.706 61.765 C 85.467 62.243 85.904 63.101 85.904 64.117 L 85.904 74.464 C 85.904 74.589 85.889 74.71 85.861 74.826 L 85.861 79.738 C 85.861 83.114 83.114 85.861 79.738 85.861 L 24.825 85.861 C 21.45 85.861 18.702 83.114 18.701 79.738 L 18.698 64.676 C 17.747 65.068 15.648 65.823 13.542 65.823 C 6.075 65.822 0 59.747 0 52.281 C 0 44.815 6.075 38.74 13.541 38.74 Z " fill-opacity="1" fill="#58adde" stroke="none" stroke-width="1" stroke-linecap="square" stroke-linejoin="miter" filter="url(#obj_3_filter)"/><defs><filter id="obj_3_filter" x="-93%" y="-93%" width="286%" height="286%" filterUnits="objectBoundingBox"><feGaussianBlur in="SourceAlpha" stdDeviation="1"/><feOffset dx="-3.6739403974420594e-16" dy="2"/><feComposite result="shadowDropdiff" operator="arithmetic" in2="SourceAlpha" k1="0" k2="1" k3="-1" k4="0"/><feFlood flood-color="#4d4b50" flood-opacity="1"/><feComposite operator="in" in2="shadowDropdiff"/><feComposite result="shadowDrop" operator="over" in2="SourceGraphic"/></filter></defs></g></g></svg>