<svg fill="#54ADDE" xmlns="http://www.w3.org/2000/svg" xmlns:xlink="http://www.w3.org/1999/xlink" version="1.1" x="0px" y="0px" viewBox="0 0 100 100" enable-background="new 0 0 100 100" xml:space="preserve"><path d="M80.813,45.61c-2.194,0-4.381,0.781-5.405,1.204V31.031c0-3.537-2.878-6.415-6.415-6.415L53.21,24.613  c0.412-0.995,1.203-3.196,1.203-5.403c0-7.823-6.364-14.188-14.187-14.188c-7.823,0-14.187,6.366-14.187,14.188  c0,2.194,0.782,4.383,1.204,5.406H11.46c-3.538,0-6.415,2.878-6.415,6.415v7.257C5.015,38.408,5,38.535,5,38.666v8.73  c0,1.065,0.458,1.963,1.255,2.463c0.799,0.502,1.807,0.526,2.765,0.062c0.023-0.012,2.402-1.128,4.568-1.128  c6.068,0,11.005,4.936,11.005,11.003s-4.937,11.003-11.005,11.003c-2.181,0-4.547-1.117-4.568-1.128  c-0.958-0.462-1.967-0.44-2.765,0.062C5.458,70.234,5,71.133,5,72.197v10.841c0,0.131,0.016,0.258,0.045,0.379v5.146  c0,3.537,2.878,6.416,6.415,6.416h57.531c3.536,0,6.415-2.879,6.416-6.416l0.003-15.78c0.996,0.411,3.195,1.202,5.402,1.202  C88.635,73.984,95,67.619,95,59.797S88.635,45.61,80.813,45.61z"></path></svg>